<svg xmlns="http://www.w3.org/2000/svg" viewBox="0 0 1499.5 334.4"><g id="b846d76e-cfec-48b8-85ca-7978bc15f2b5" data-name="Camada 2"><g id="fe218906-3dde-4ebb-bfdb-7702b870eee7" data-name="Camada 1"><path d="M0,11.8a4.5,4.5,0,0,0,1.1-1.3c1.4-4,4-5.9,8.1-5.9H137c2.9,0,5.8.8,8.8,1.2,4.5.6,9.1,1,13.6,1.8a55.7,55.7,0,0,1,7.9,2.5,63.6,63.6,0,0,1,6.2,1.9c2.6,1.1,5.2,2.4,7.7,3.7,10.5,5,18.5,13.3,25.9,21.8,4.5,5.2,7.9,11.2,11.3,17.1a87.2,87.2,0,0,1,5.7,12.9,64.9,64.9,0,0,1,1.9,7.6c.8,4.1,1.5,8.1,2.2,12.2a28.5,28.5,0,0,1,.7,5.1c.1,6.5.4,13-.1,19.5s-1.6,9.9-2.5,14.9c-.6,2.7-1.2,5.4-1.9,8.1a22.4,22.4,0,0,1-1.6,5c-2.5,5.2-4.8,10.5-7.7,15.4A86.6,86.6,0,0,1,199.5,174a84.5,84.5,0,0,1-21.7,14.4,86.3,86.3,0,0,1-12.3,4.6c-2.8.9-5.8,1.1-8.6,1.8l-11.6,2.6c-1.1.2-2.3.2-3.5.3l-7.1,1.2a7.6,7.6,0,0,0-1.6.3c-10.7.5-21.3,1.3-32,1.4-27.8.2-55.6.1-83.4.1-4.6-.1-9.2-.6-13.4-2.8-1.3-.7-2.1-2.3-3-3.6A9.2,9.2,0,0,1,0,192.2v-7.1c.8-1.3,1.2-2.9,2.3-3.8s5.1-3.5,7.5-5.5a12,12,0,0,0,4.8-9.1c.2-43.5.1-87,.1-130.6a6.2,6.2,0,0,0-.5-2.7C13,31.1,11.9,28.7,9,27.8a8,8,0,0,1-3.5-2.2c-2-2.1-3.7-4.4-5.5-6.7ZM90.9,122.6c.3,7.7.9,20.5,1.5,33.4.1,3.4-.7,7.2,1.6,10.2s3.5,5.2,5.8,6c4.5,1.6,9.1-.3,13.4-1.8s5.8-3.6,8.8-5.2c5.8-3.1,9.1-8.5,12.7-13.5a98.1,98.1,0,0,0,6.4-12,67.3,67.3,0,0,0,4-10c.9-3.3,1.1-6.8,1.7-10.2a7.5,7.5,0,0,1,.4-1.6,47.6,47.6,0,0,0,1-5.2c.1-8.3.2-16.5-.1-24.7-.1-4-1-7.9-1.5-11.8l-.3-.6c-.9-2.3-1.6-4.6-2.6-6.9a75.3,75.3,0,0,0-3.8-8.8c-2.5-4.1-5.5-7.8-8.2-11.9s-8.4-9.2-13.7-12.4c-3.3-1.9-7.2-2.8-10.6-4.7s-6.4-.9-9.6-1c-.7-.1-1.6.7-2.1,1.3-2.1,2.1-2.6,4.9-2.8,7.7s-.1,7.5-.2,11.3C92.1,72.6,91.6,95,90.9,122.6Z"/><path d="M627.8,4.6h72.8a30,30,0,0,1,5.1.8l2.5.6c6.2.2,11.8,2.1,17.5,4.3A44.5,44.5,0,0,1,747,27.5c1.9,2.9,2.9,6.4,4,9.8a56.5,56.5,0,0,1,2.5,10.8c.7,4.9,1.3,9.9-.5,14.9-.7,2-1.2,4.1-1.8,6.2a27.4,27.4,0,0,1-7,12.1,100.9,100.9,0,0,1-11.1,10.6,170.2,170.2,0,0,1-14.1,9.9c-2.1,1.4-2.3,2.1-1,4.2,4.6,7.2,9.1,14.5,13.4,21.9,2.6,4.4,4.9,9,7.3,13.6s4.2,9.1,6.4,13.5,5.5,11.6,8.8,17.1a12.2,12.2,0,0,0,6.2,4.7c4.8,1.5,8.4,4,10,8.8s-.9,13.5-8.7,13.6c-28.6.4-57.3,1.1-85.9,1.4a71.2,71.2,0,0,1-13.8-1.6c-2.2-.5-3.9-2.1-5.2-4.5s-1.1-5.1-1.1-7.7,3.1-7.2,6-8.5a19.2,19.2,0,0,0,5-2.9c3-2.2,3.3-6,1.5-9.3-3-5.4-5.5-11-8.3-16.5l-5.5-10.8c-1.7-3.7-3.2-7.4-4.9-11s-2.2-4.5-3.5-6.7-5.2-2.1-6.4-1.1a2.6,2.6,0,0,0-.7,1.9c-.1,14.8-.3,29.5.1,44.3.1,5.6,3.9,9.5,8.9,12.2s7.7,8.2,4.8,13.9a39.2,39.2,0,0,0-1.6,3.6c-1.1,2.3-3.1,3.1-5.5,3.3-27.8,3.2-55.8.7-83.7,1.4-3.4.1-7-.8-10.4-1.5s-5.4-5.1-5.4-7.4a18.2,18.2,0,0,0-.1-3.3c-.8-5.9,3.3-8.5,7.3-11.2s5.3-4.2,6.5-8,1-9,1.1-13.4c0-38.6.1-77.1-.1-115.6a15.9,15.9,0,0,0-5.9-12.7,11.1,11.1,0,0,0-3.4-1.8c-2.7-.8-3.7-3-4.9-5l-.3-.4c-2.5-5.3.5-13.2,6-15.5a5.2,5.2,0,0,1,1.8-.2ZM637,66.9c0,7.3,0,14.6-.1,21.9,0,2.2.8,3,2.9,2.8,3.8-.3,7.5-.1,11.3-1.3a34,34,0,0,0,12.6-6.7,22.4,22.4,0,0,0,6.6-10.9c1.1-3.9,2.4-7.7,2.9-11.6a37.4,37.4,0,0,0-3.1-18.4c-1.5-3.4-3.1-7.1-6.6-9.1-1.9-1.1-4.1-1.8-6-2.9a10.9,10.9,0,0,0-9.3-.6c-7,2.9-11,8.5-11.2,16.3S637,60.1,637,66.9Z"/><path d="M1009,102.6a106.3,106.3,0,0,1-.1,11.3c-.4,3.6-1.6,7.1-2.5,10.6-.5,1.9-1.2,3.6-1.7,5.5-1.9,6.8-5.2,12.8-8.7,18.9a108.5,108.5,0,0,1-18.7,23.9A121.1,121.1,0,0,1,962,185.1a102.3,102.3,0,0,1-13.7,7.7,78.4,78.4,0,0,1-9.6,3.5l-6.7,2.5c-2.2.7-4.6,1.3-6.9,1.8a65.8,65.8,0,0,1-7.5,1.4c-5.7.7-11.4,1.3-17,1.6a142.2,142.2,0,0,1-14.6,0c-3.4-.1-6.8-.7-10.2-1.1-1.4-.1-2.8-.3-4.3-.3-3.2-.1-6.5.3-9.7-1.2-.8-.4-2-.2-3-.3l-8-1.2-1.9-.3c-4.2.2-8-1.1-11.8-2.7s-9.8-4.2-14.7-6.5a19.7,19.7,0,0,1-4.7-3c-6.8-5.8-14-11.2-19.2-18.7-2.3-3.4-5.2-6.3-7.5-9.6s-4.6-7.6-6.7-11.6-3.9-7.5-5.6-11.3c-.8-1.8-1.3-3.6-1.9-5.4l-2.7-8.1c0-.2-.1-.3-.1-.4a100.9,100.9,0,0,1-1.7-10.8c-.3-5.2-.2-10.4,0-15.5a50.9,50.9,0,0,1,1.2-6.8,6.8,6.8,0,0,0,.2-1.4c0-3.8,1.4-7.2,2.7-10.6s2.2-6.4,3.4-9.5a60.4,60.4,0,0,1,3.6-7.2c1.7-3.3,3.6-6.5,5.4-9.6a38.2,38.2,0,0,1,3.1-4.7c5.5-6.6,9.7-14.4,17.2-19.3,4.4-2.9,8.5-6.6,13-9.4A75.9,75.9,0,0,1,832.4,12c3-1.4,6-2.9,9.1-4.1s4.4-1.2,6.6-1.8l8.2-2.5.8-.4a74.9,74.9,0,0,1,8-1.5c7-.7,14-1.2,21-1.6,3.7-.2,7.4-.1,11.1,0s7.5-.5,11.1,1.2a8.6,8.6,0,0,0,2.3.2c5.4.6,10.7.9,16.1,1.7a74.7,74.7,0,0,1,8.9,2.6c2.2.6,4.6,1.1,6.8,1.9a51.6,51.6,0,0,1,7.7,3.1c4.6,2.5,9.4,4.9,13.6,8a97.3,97.3,0,0,1,13.7,12A172,172,0,0,1,992.2,50c3.7,5.5,6.5,11.6,9.5,17.6a68.2,68.2,0,0,1,4,9.7c1,3,.9,6.2,2,9.1C1009.9,91.7,1008.5,97.2,1009,102.6Zm-83.7.1h0c0-6.3,0-12.6-.1-18.9a19.7,19.7,0,0,0-.4-3.4c-.8-4.3-1.6-8.5-2.5-12.7a65.3,65.3,0,0,0-2-7.6,63.9,63.9,0,0,0-4-8.9c-2.4-4.5-4.7-9.1-7.8-13s-5.7-5.5-8.8-7.9a15.5,15.5,0,0,0-9.9-2.8,19.1,19.1,0,0,0-9.2,2.9c-7.3,4.4-12.2,11.2-15.6,18.9-1.8,4-3.4,8.1-4.8,12.2a92.5,92.5,0,0,0-2.6,11.6c-.7,4.1-.9,8.4-1.2,12.6-1.1,14.2-.3,28.5,1.2,42.6a9.5,9.5,0,0,0,.6,1.8c.3,1.2.5,2.4.8,3.7.6,2.9,1,5.9,1.9,8.8a74.9,74.9,0,0,0,4.1,10.2,65.9,65.9,0,0,0,6.2,11.4,40.9,40.9,0,0,0,9.1,9c2.8,2,6.6,2.9,10.1,3.7,1.5.3,3.4-.6,5-1.3,3.3-1.5,6.9-2.9,9.7-5,4.4-3.3,7.2-8,9.6-12.8a75.5,75.5,0,0,0,6.4-15.5c1.2-4.4,2.9-8.7,2.7-13.5a7.8,7.8,0,0,1,.2-1.4c.4-3.4,1.1-6.7,1.2-10.1S925.3,107.5,925.3,102.7Z"/><path d="M395.6,200.7c-12.7,0-25.5.2-38.2-.1a36.5,36.5,0,0,1-12.7-2.7c-4.6-1.9-5.2-6.5-4.8-11.2s4.2-7.8,8.4-9.9a10.4,10.4,0,0,0,5.7-11.6,14.9,14.9,0,0,1-.2-2.1c-.1-4.1-1.5-7.9-2.7-11.7a45.8,45.8,0,0,1-1.8-7.3c-.4-2.8-.8-3.4-3.7-3.4H294.5c-2.8,0-3.5.7-4.1,3.4a42.6,42.6,0,0,1-1.5,4.7,62,62,0,0,0-2.3,6.9c-1.2,5.4-3.6,10.8-.3,16.1a16.1,16.1,0,0,0,5.5,5.2c6.4,3.4,9.3,9.3,7.5,16.2-.6,2.5-4.5,5.6-6.9,6-15.3,2.7-30.7,1.2-46,1.4-4.4.1-8.7-.8-13.1-1.4-2-.3-5.5-5.1-5.6-7.4a48.6,48.6,0,0,0,0-5.4c-.3-2.7,1.2-4.6,3-6.3s3.5-2,5.2-3.3a11.2,11.2,0,0,0,3.5-3.7c2.3-4.9,4.3-9.9,6.4-15s3.9-9.1,5.7-13.8,2.1-6.7,3.3-10,2.8-6.6,4-9.9,1.3-4,2-5.9l1.9-5.2c.9-2.3,1.7-4.7,2.6-7.1s2.8-6.3,4-9.5,2.3-6.5,3.5-9.7,1.7-4.2,2.5-6.3,1.1-2.9,1.6-4.3c1.2-3.2,2.2-6.4,3.4-9.5s2.6-6.1,3.9-9.1,2.3-5.3,3.5-8c2.1-4.8,4.2-9.6,6.6-14.3s5.5-10.4,8.7-15.3,7.6-10.8,13.7-13.8A38.3,38.3,0,0,1,328,2.8a120.2,120.2,0,0,1,19.9-1.2c5.2.1,10.6.8,15.1,3.5a34.4,34.4,0,0,1,9.9,9.5,140.3,140.3,0,0,1,10.2,17.7c2.5,4.7,4.4,9.7,6.5,14.6s3.8,7.9,5.5,11.9,3.3,8.3,5,12.5,2.6,5.9,3.8,8.9l3.6,9.5,3.9,9.3c.6,1.6,1.3,3.1,1.9,4.7,1.1,3.5,2.1,6.9,3.3,10.3s2.7,6.7,3.9,10.1,2.4,7.2,3.5,10.8c.6,1.7,1.2,3.5,1.9,5.2s1.7,3.8,2.4,5.7c2,5.2,3.8,10.5,5.9,15.7,1.5,3.6,3.3,7,4.8,10.5a9.6,9.6,0,0,0,5.2,4.9,13.3,13.3,0,0,1,7.8,7.6,11.5,11.5,0,0,1-.4,8.9,9.1,9.1,0,0,1-5,5.2,1.9,1.9,0,0,1-1,.5,106.5,106.5,0,0,1-12.5,1.5c-12.5.2-25,.1-37.5.1ZM320.4,62.5l-.8.2c-1.2,2.6-2.5,5.2-3.6,7.9l-3.6,8.8c-1.3,3.1-2.7,6.2-3.9,9.3s-2.3,6.7-3.4,10.1-1.9,6.4-2.8,9.7c-.5,1.5.3,2.3,1.9,2.3,10.4.1,20.7.1,31.1,0,1.7,0,2.3-1.1,1.7-2.7s-.9-2.7-1.3-4.1-1.2-4.2-1.9-6.2-1.7-4.7-2.5-7.1-1.1-2.5-1.5-3.8c-1.2-3.3-2.3-6.7-3.4-10s-1.7-5.2-2.7-7.7S321.5,64.7,320.4,62.5Z"/><path d="M1397.4,200.7c-15.4,0-27.7.1-40-.1a43.4,43.4,0,0,1-12.5-1.7c-2.2-.7-3.9-3.3-5.5-5.4a8.3,8.3,0,0,1-1.6-4c-.5-4.8,2.1-8.9,6.5-11.2a27.2,27.2,0,0,0,5.1-3.2c2.1-1.9,3.6-3.9,3.5-7.2a49.8,49.8,0,0,0-2.8-14.9,45.1,45.1,0,0,1-1.8-8.1c-.5-2.7-2.1-4.2-4.9-4.2h-50.6c-2,0-3,.2-3.5,2.6s-2.8,7.3-3.8,11.1-3,9.7-1.8,14.7c.7,2.6,1.9,5.5,4.8,6.8a52.6,52.6,0,0,1,4.7,2.7,12.3,12.3,0,0,1,4.4,14.8,9,9,0,0,1-4.8,5.3c-.3.1-.6.4-.8.4-3.9.5-7.8,1.4-11.7,1.5q-18.5.3-36.9,0a70.1,70.1,0,0,1-11.2-1.5c-2.6-.4-5.3-3.8-5.4-6.5a65.9,65.9,0,0,1,0-7.7,7.1,7.1,0,0,1,4.9-6.6c4.6-1.8,6.7-5.8,8.6-9.9s2.5-5.7,3.7-8.6,1.5-4.4,2.3-6.5l1.7-4.8c1.8-4.5,3.8-9,5.5-13.6s3.1-9.2,4.8-13.8,2.7-6.3,3.9-9.5,1.4-4.2,2.1-6.3,1-2.9,1.6-4.4c1.8-4.5,3.8-9,5.5-13.6s2.2-6.6,3.5-9.9,2.7-6.7,4-10,2.2-6,3.4-9,2.1-5.5,3.3-8.1,3.8-8.2,5.9-12.2,5.8-9.6,8.3-14.6a44.1,44.1,0,0,1,11.7-14.3,26.9,26.9,0,0,1,8.5-4.6c9-3.2,18.5-3.5,27.9-2.9s18.9,4.3,24.2,13.8c2.8,5,6,9.9,8.6,15s5.4,11.8,8.1,17.6,4.8,10.4,7,15.6,4.2,10.9,6.4,16.3,3.7,8.7,5.4,13,2.3,6.4,3.5,9.5,2.7,6.9,4,10.3a50.1,50.1,0,0,1,1.8,5l4.8,14.7c1.9,5.5,3.8,11.1,6,16.5,3.2,7.8,6.6,15.5,10.1,23.3,1.4,3.3,4.7,4.5,7.5,6.2,7.2,4.5,8.5,12.9,1.8,18.8a8.8,8.8,0,0,1-4.6,2C1426.5,202.1,1410.4,199.8,1397.4,200.7ZM1319,62.4a5.7,5.7,0,0,0-1.1,1.2c-1.3,2.7-2.7,5.5-4,8.3s-2.3,6.1-3.5,9.1-2.4,5.8-3.5,8.7-2.7,7.2-3.9,10.9-1.3,4.7-2.3,7-.7,3.2,2,3.2h29.7a4.9,4.9,0,0,0,2.1-.1,1.7,1.7,0,0,0,1.1-1.1c-.8-3.4-1.6-6.7-2.6-10.1s-1.8-4.7-2.6-7l-3.5-10.2c-.5-1.5-1.1-2.9-1.6-4.3s-1.7-4.1-2.5-6.1-1.2-4-1.9-5.9A32,32,0,0,0,1319,62.4Z"/><path d="M1103.5,99.1c0,5.9-.3,11.8.1,17.6.2,3.4,1.5,6.8,2.4,10.1s1.2,4.5,1.9,6.7,1.7,7.4,3.3,10.7a37.3,37.3,0,0,0,6.3,9.8,69.5,69.5,0,0,0,12.1,10.3c4.4,2.8,9.2,5.2,14.8,5.3,1.8.1,3.7,1.1,5.5,1.1,3.7-.2,7.6-.3,11.1-1.4a82.5,82.5,0,0,0,16.7-6.8c6.7-3.8,11.8-9.3,17.3-14.4a40.6,40.6,0,0,1,12.8-8.4c5.9-2.4,15.1.9,18.8,6.2a16,16,0,0,1,2.7,12.4,34.6,34.6,0,0,1-3.9,9.6c-4,7.3-10.6,12.5-17.2,17.3a86,86,0,0,1-11.9,6.6c-4.1,2.1-8.3,3.9-12.6,5.6a66.3,66.3,0,0,1-7.7,1.8c-3.6.8-7.2,1.8-10.8,2.5s-4.4.3-6.5.5a15.7,15.7,0,0,0-3.1.8,12,12,0,0,0,1.6,2.7c6.2,6.3,12.7,12.4,18.7,18.9s4,15.7-3.7,20a45.3,45.3,0,0,1-23,5.6c-2.9-.1-5.9.2-8.8-.1s-7.1-.4-10.2-1.7-6.9-2.8-9.5-5.8-3-11,1.1-13.7,6-2.6,9-3.9a27.8,27.8,0,0,0,4.9-2.4,2.4,2.4,0,0,0,.6-3.6l-8.3-12.3a9.2,9.2,0,0,0-7.9-4.6,105.9,105.9,0,0,1-13.8-1.5c-2.7-.5-5.2-1.8-7.8-2.7s-6.7-2-10-3.3a59.3,59.3,0,0,1-7.2-3.4l-8.1-4a22.7,22.7,0,0,1-3.4-1.9c-9.2-6.6-18.3-13.2-24.8-22.8-2.7-3.9-5.8-7.5-8.3-11.6a89.1,89.1,0,0,1-5-10.3c-1.4-3.2-2.9-6.5-4-9.8a54.7,54.7,0,0,1-1.9-8c-.9-4.9-2-9.8-2.4-14.7s0-9.9.1-14.9a16.3,16.3,0,0,1,.7-3c.6-3.8.8-7.7,1.7-11.4a84.4,84.4,0,0,1,4.1-10.5,77,77,0,0,1,4.7-10.1c3-5.1,6.5-10,9.8-14.9,5.8-8.7,13.5-15.6,21.3-22.4,3.4-3,7.7-5.1,11.7-7.5s6.9-3.8,10.5-5.4a55.6,55.6,0,0,1,7-1.9l10.8-2.5.9-.3,13.9-1.7L1126,.5c1-.1,2-.4,3-.4,10.3,0,20.6-.3,30.9.1,4.7.2,9.3,1.6,13.9,2.6a58.3,58.3,0,0,1,7.2,1.8,62.9,62.9,0,0,1,6.2,1.7c4.9,1.9,9.9,3.6,14.6,5.9s11.2,5.6,16.2,9.4a14.3,14.3,0,0,1,5.7,9.8c.6,5.6,1.9,11.1,2.4,16.7s1.1,9.5-.7,14.3a15,15,0,0,1-3.6,6.1c-2.4,2.3-5.6,2.6-8.6,3.1a26.6,26.6,0,0,1-8.9,0,34.3,34.3,0,0,1-9-3.5,13.8,13.8,0,0,1-4.9-3.7,21.4,21.4,0,0,1-2.6-5.5c-2-4.9-3.6-9.9-6.9-14.1s-6.1-7.8-10.4-10.4a55.5,55.5,0,0,0-9.5-4.6,49.1,49.1,0,0,0-10.5-2.7,30.5,30.5,0,0,0-8.5.6,27.7,27.7,0,0,0-6.2,1.9c-2.6,1.1-5.4,2-7.6,3.7-5.7,4.2-11,8.9-14.4,15.2-1.9,3.4-3.8,6.7-5.4,10.3a41.2,41.2,0,0,0-1.9,7.1c-.8,3.8-1.5,7.7-2.3,11.6-.2,1.3-.6,2.6-.7,3.9V99.1Z"/><path d="M1242.8,288h203.1c2.1,0,2.7.7,2.6,2.7,0,6.1.1,6.1-6,6.1H1038.8c-1.9,0-2.6-.6-2.6-2.5.2-7.4-.8-6.2,6-6.2Q1142.5,287.8,1242.8,288Z"/><path d="M207,296.7H3.8c-2.2,0-2.8-.8-2.8-2.8.2-7.3-.5-5.9,5.9-5.9q201.1-.2,402.4,0c3.5,0,4,.4,4,3.8V294c.2,2-.8,2.8-2.8,2.7H207Z"/><path d="M1242.4,316.1H1039c-2,0-2.8-.5-2.8-2.6.2-7.1-.7-6.1,6-6.1h403.7c2.1,0,2.7.7,2.6,2.7,0,6,.1,6-5.8,6Z"/><path d="M206.7,316.1H3.8c-2,0-2.8-.6-2.8-2.7,0-6-.1-6,6-6H409.4c3.2,0,3.9.7,3.9,3.8,0,4.8,0,4.8-4.9,4.8Z"/><path d="M437.9,299.1V268c-.1-1.8.5-2.6,2.4-2.5,9.4,0,18.8-.5,28.2.2,6.4.4,12,3.5,15.1,9.6.7,1.4.2,3.4.4,5,.6,4.2-.4,8-3.3,10.8s-5.5,3.7-8.3,5.5l-1.6.9a4.4,4.4,0,0,0,1.5,1c6.3,1.6,11.8,4.5,14.2,10.7a17.5,17.5,0,0,1,1.1,9.5c-1,5.3-4,8.5-7.9,11.4a12.2,12.2,0,0,1-5.9,2.4c-10.7.6-21.4.9-32.2,1.2-2.7.1-3.7-.9-3.7-3.6Zm11.6,14.2c0,3.1.1,6.3-.1,9.4s.8,2.9,2.9,2.8c5.8-.3,11.7.5,17.4-1.4,2.5-.8,4.3-1.9,5.5-4.1a9.4,9.4,0,0,0,.4-8.2c-1.5-4.2-4.4-6.1-8-7.6s-4.6-.9-6.6-1.8-6.1-1.1-9.2-1.3-2.4.7-2.3,2.4Zm7-19.2h0a18.2,18.2,0,0,0,3.3-.1c5.2-.8,10.3-1.5,13-7.4s-.6-11.5-5.6-12.2-10.3-.9-15.5-1.3a1.8,1.8,0,0,0-2.2,2.1v17.1c0,1.4.6,2,2,2Z"/><path d="M946,304.5c0,2.9.4,5.9-.1,8.7a42.8,42.8,0,0,1-3.3,8.8c-2.2,4.7-6,7.9-10.5,10.2a18.7,18.7,0,0,1-7,1.9c-3.3.3-6.6,0-9.9.1-6.4,0-11.6-2.9-15.7-7.3s-4.6-6.9-6-11c-2.1-6.2-1.5-12.5-1-18.5a23.6,23.6,0,0,1,8.7-16.7,39.1,39.1,0,0,1,6.5-4.4,26.7,26.7,0,0,1,7.3-1.7c2.3-.3,4.6,0,6.9-.1,4.7-.2,8.6,2,12.7,4s7.3,7.2,9.6,11.6S946.3,299.6,946,304.5Zm-42,1a22.2,22.2,0,0,0,2.8,13.6,14.7,14.7,0,0,0,11.6,7.7,11.7,11.7,0,0,0,9.4-3.2,31.4,31.4,0,0,0,4.9-5.9c1.8-2.8,1.5-6.2,1.8-9.5a33.7,33.7,0,0,0-1.6-15.7c-3-8.3-11.1-12.4-19.2-9.2-4.8,1.9-9.6,8.9-9.7,14.2Z"/><path d="M723.4,334.2c-2.8,0-5.2.4-7.5-.1a31.5,31.5,0,0,1-7.8-3.3,21.8,21.8,0,0,1-8.4-8.9c-1.1-2.3-1.4-5.1-2.6-7.4-2.4-4.6-1.2-9.5-1.3-14.3a22.8,22.8,0,0,1,3.7-12.4A52.2,52.2,0,0,1,707,279c1.8-1.8,4.4-2.2,6.7-3.3,4.2-1.9,8.4-.9,12.6-1.2s7.5,1.3,10.8,3.2,4.4,2.6,5.8,4.5,3.3,6,5.2,8.9,1.1,7.5,2.2,11.1c.6,2-.2,4.5-.4,6.7s-.4,2-.4,3c-.4,8.2-4.8,14.3-11,18.8A20.4,20.4,0,0,1,723.4,334.2Zm16.1-29.7c-.6-2.9-1-5.8-1.8-8.6a22.3,22.3,0,0,0-2.6-6.8c-2.5-3.8-6-6.5-11-6.5s-8.4.7-11.4,3.9a18.6,18.6,0,0,0-5,10.8c-.5,7.2-1,14.4,2.5,21.4,2.3,4.7,9,8.4,13.5,8.2,1.4-.1,2.8-1,4.2-1.4a10.5,10.5,0,0,0,6.6-4.7C738.2,316,738.1,310.1,739.5,304.5Z"/><path d="M569.6,321.5l9.6,3.5.5.2c4.3.6,8.6,1.7,12.9,1.5a18.5,18.5,0,0,0,9.6-3.5c2.9-2.1,3.1-7.1.5-9.5s-7-4-10.9-5.1a58.9,58.9,0,0,1-7-2.6l-7.3-3.2a10.9,10.9,0,0,1-6.2-9.3,36.2,36.2,0,0,1,0-5.7c0-3.7,4.4-8.7,7.6-10.5,7.5-4.1,15.5-2.6,23.3-2.7a30.3,30.3,0,0,1,8.4,1.5c.9.3,1.6,1.7,2.3,2.7s.1.9.1,1.4c0,4.8-2.2,6.1-6.7,3.9a7.3,7.3,0,0,0-3.1-.9c-4.9-.1-9.7-.3-14.5,0a11.3,11.3,0,0,0-5.6,2.4c-2.5,1.9-2.3,5.6,0,7.7a15.8,15.8,0,0,0,7.2,3.9,98.8,98.8,0,0,1,10.3,3.9,74.3,74.3,0,0,1,8.2,3.4c2.6,1.6,5.1,3.6,5.7,7s1.7,4.2,1.3,6.2c-.9,5.7-3.5,10.4-8.9,13.4s-11.3,3.3-17.3,3.2c-2.2-.1-4.5,0-6.8-.2a34.6,34.6,0,0,1-5.2-1.1l-2.5-.4c-4.4-.8-6-1.4-5.5-5.6A50.1,50.1,0,0,0,569.6,321.5Z"/><path d="M982.2,334.2c-2.7,0-5.4.1-8-.1a26.2,26.2,0,0,1-3.8-.9l-2.7-.6a54,54,0,0,1-5.7-1.8c-.4-.2-.6-1.1-.7-1.7a17.1,17.1,0,0,1,0-3.2c.2-1.2.4-3.3.8-3.4a14.1,14.1,0,0,1,4.5.5c2.8.8,5.5,1.7,8.3,2.4a24.5,24.5,0,0,1,2.9.8,13.3,13.3,0,0,0,9.6-.1,5.4,5.4,0,0,1,2.5-.6c3.6-.4,7.5-4.7,7.3-8.3a5.2,5.2,0,0,0-1-2.7c-2-2.5-4.7-3.7-7.8-4.5s-4.4-1.7-6.6-2.5a24.3,24.3,0,0,0-5.2-1.7,15.2,15.2,0,0,1-10.1-6.2c-2.8-3.7-4.3-7.5-2.7-12.7a15.8,15.8,0,0,1,9-10.2,25.4,25.4,0,0,1,8.2-2.1,59.1,59.1,0,0,1,10.3-.1c2.2.2,4.4.9,6.6,1.2a34,34,0,0,0,4.5.3c1.4,0,2.2.6,2.2,2.1v2.8q0,6-5.7,3.3a9.1,9.1,0,0,0-4-1H980.4c-2.8,0-7,3.8-6.8,6.4s1.1,3.6,2.3,4.3c3.5,1.8,7.3,3.1,11,4.6L993,301l4.5,1.7c2.1,1.1,4.6,1.9,6.2,3.5s2.7,4.4,3.7,6.7.2,2.3.3,3.5c.8,9-5.5,13.9-12.4,16.4-2.2.7-4.2,1.5-6.5,1.4Z"/><path d="M842.7,305.4c0-6.8,0-12.4.1-18,0-2-.8-2.8-2.8-2.8H829.9c-1.6,0-2.1-.5-2.2-2-.2-5.6-.2-5.6,5.3-5.6h5.9c3.2,0,3.8-.7,3.8-3.9s.1-4.3,0-6.4.4-3.1,2.8-2.8a32.5,32.5,0,0,0,5.4,0c1.5,0,2.1.7,2.1,2.2s.1,5.5,0,8.2.7,2.8,2.8,2.7c6.6-.1,13.2.1,19.8-.1,2.3,0,3,.8,2.9,3-.1,4.6,0,4.6-4.6,4.6H855.7c-2.1,0-2.7.7-2.7,2.7v30.8c0,3.7,3,6.4,6.6,7.5a27.2,27.2,0,0,0,10.9,1.2c2.3-.2,4.5-.9,6.8-1.3s2.9.5,2.7,2.6a26.2,26.2,0,0,0,0,2.8,3,3,0,0,1-3.3,3.2c-7.1.1-14.3.2-21.4,0-4.6-.1-9.5-4.8-11.2-8.9C841.4,318.3,843.7,311.1,842.7,305.4Z"/><path d="M682.1,286.1a50.1,50.1,0,0,0-20.7-3.2c-6.4.3-10,4.2-13.4,8.5-1.3,1.6-1.5,4.2-2,6.5s-1.4,3.9-1.3,5.9c.3,7.7,2.3,14.7,9,19.5a18.6,18.6,0,0,0,5.7,2.1c2.4.7,4.9,1.6,7.2,1.4,4.2-.4,8.3-1.7,12.4-2.5a9.5,9.5,0,0,1,3.3-.5c.4,0,1.1.8,1.1,1.3a14.8,14.8,0,0,1,0,4.7c-.4,1.1-1.5,2.5-2.5,2.7-4.5,1.1-9,2.1-13.7,1.8s-7.6.1-11.3-.2a19.4,19.4,0,0,1-6.3-2,29.7,29.7,0,0,1-6.6-4.2,27.9,27.9,0,0,1-5.5-6.4c-3.4-5.6-3.9-12-3.9-18.3a30.6,30.6,0,0,1,.8-8c.7-2.8,1.6-5.9,3.3-8.2,3.1-3.9,6.5-7.6,11.4-9.8s11.4-2.9,17.3-2.7c3.2.1,6.4-.6,9.4,1.3.7.4,1.8.1,2.8.2,2.6,0,3.5.9,3.5,3.6Z"/><path d="M535,304.6v25.6c0,2.8-.8,3.5-3.5,3.6s-2.9-.1-4.3,0-3.1-1-3.1-3.1v-43c0-3.7-.7-4.4-4.4-4.4H506.1c-1.9,0-2.8-.6-2.7-2.6,0-5.5-.3-4.8,4.8-4.8h24.2c2,0,2.6.6,2.6,2.6C534.9,287.2,535,295.9,535,304.6Z"/><path d="M796,305c0,8.6,0,17.2.1,25.8,0,2.2-.6,3.3-3,3a24.6,24.6,0,0,0-4.7,0c-1.9,0-2.7-.9-2.6-2.8V286.3c0-2.9-.2-3-3.1-3H767.1c-1.6,0-2.3-.5-2.4-2.3-.1-5.1-.2-5.1,4.9-5.1h24c1.9,0,2.5.7,2.5,2.5C796,287.2,796,296.1,796,305Z"/><path d="M1499.5,185.9c.4,11-7.8,18.4-18.2,18.4s-18.5-9-18.6-18.3a18.1,18.1,0,0,1,18.7-18.4C1491.3,167.7,1500.2,175.1,1499.5,185.9Zm-33-.2c-.9,9.4,7.6,14.9,13.6,15.3,10.2.8,16.6-8.1,16.6-15s-7.1-15.3-15-15.3S1465.6,177.3,1466.5,185.7Z"/><path d="M522.9,255.9c0-6.9,0-6.9,6.8-6.9s6.8-.4,6.8,6.7a26.7,26.7,0,0,0,0,4c.2,2.3-1,3.1-3.1,3.1h-8.2c-1.6.1-2.3-.7-2.3-2.2Z"/><path d="M797.5,255.8c0,7,0,7-7.1,7s-6.1.6-6.1-6.1v-5.2c-.1-1.8.5-2.6,2.4-2.5s5.9,0,8.9-.1,1.9.7,1.9,2Z"/><path d="M1472.8,186.4c0-2.4.1-4.9,0-7.3s1.1-3.3,2.9-3.2a86.2,86.2,0,0,1,10.2,1.3c2.8.7,4,4.9,2,7.1s-4.4,4.3-.6,7.1a4.7,4.7,0,0,1,1.2,2.2,8.6,8.6,0,0,1,.2,2.3c-.8,0-1.9.3-2.3-.1s-2-2.6-3.1-3.8a29.4,29.4,0,0,0-3.9-4c-1.4-1-2.2-.1-2.3,1.4s-.1,3.3-.1,4.9-.4,2-1.8,1.9-2.4-.1-2.4-1.8v-8Zm8.1-6.9h-1.7c-1.8-.1-2.2,1-2.2,2.5s.3,2.7,2.2,2.5a15.3,15.3,0,0,0,3.7-.1,2.9,2.9,0,0,0,1.8-1.6C1485.3,180.3,1484.6,179.8,1480.9,179.5Z"/></g></g></svg>