<?xml version="1.0" encoding="utf-8"?>
<!-- Generator: Adobe Illustrator 24.1.2, SVG Export Plug-In . SVG Version: 6.00 Build 0)  -->
<svg version="1.1" id="Camada_1" xmlns="http://www.w3.org/2000/svg"
	xmlns:xlink="http://www.w3.org/1999/xlink" x="0px" y="0px"
	viewBox="0 0 595.3 89.8" style="enable-background:new 0 0 595.3 89.8;" xml:space="preserve">
	<style>
		.svg{
			fill: white;
		}
		.svgponto{
			fill: #E8BD00;
		}

	</style>
<g>
	<path class="svg" d="M5.4,24.3C9,17.8,14,12.7,20.5,9.1c6.4-3.6,13.7-5.5,21.9-5.5c10,0,18.6,2.6,25.7,7.9c7.1,5.3,11.9,12.5,14.3,21.6H59.8
		c-1.7-3.5-4.1-6.2-7.1-8c-3.1-1.8-6.6-2.8-10.5-2.8c-6.3,0-11.4,2.2-15.4,6.6c-3.9,4.4-5.9,10.3-5.9,17.6c0,7.4,2,13.2,5.9,17.6
		c3.9,4.4,9,6.6,15.4,6.6c3.9,0,7.4-0.9,10.5-2.8c3.1-1.8,5.5-4.5,7.1-8h22.6c-2.4,9.1-7.2,16.3-14.3,21.5
		c-7.1,5.2-15.7,7.9-25.7,7.9c-8.2,0-15.5-1.8-21.9-5.5C14,80.3,9,75.3,5.4,68.8C1.8,62.3,0,54.9,0,46.6C0,38.3,1.8,30.8,5.4,24.3z"
		/>
	<path class="svg" d="M107.7,85.6c-5.2-2.8-9.4-6.8-12.4-12c-3-5.2-4.5-11.3-4.5-18.2c0-6.9,1.5-12.9,4.6-18.2c3-5.2,7.2-9.3,12.5-12.1
		c5.3-2.8,11.2-4.2,17.8-4.2c6.6,0,12.5,1.4,17.8,4.2c5.3,2.8,9.4,6.8,12.5,12.1c3,5.2,4.6,11.3,4.6,18.2c0,6.9-1.5,12.9-4.6,18.2
		c-3.1,5.2-7.3,9.3-12.6,12.1c-5.3,2.8-11.3,4.2-17.8,4.2C118.9,89.8,113,88.4,107.7,85.6z M135.5,67.7c2.8-2.9,4.1-7,4.1-12.4
		c0-5.4-1.3-9.5-4-12.4c-2.7-2.9-6-4.3-9.9-4.3c-4,0-7.3,1.4-10,4.3c-2.6,2.8-4,7-4,12.4c0,5.4,1.3,9.5,3.9,12.4
		c2.6,2.9,5.9,4.3,9.8,4.3C129.4,72,132.7,70.6,135.5,67.7z"/>
	<path class="svg" d="M231,28.7c4.7,5.1,7,12.1,7,20.9v39.1h-20.4V52.5c0-4.5-1.2-8-3.5-10.4c-2.3-2.5-5.4-3.7-9.4-3.7c-3.9,0-7,1.2-9.4,3.7
		c-2.3,2.5-3.5,6-3.5,10.4v36.4h-20.5v-67h20.5v8.9c2.1-3,4.9-5.3,8.4-7c3.5-1.7,7.5-2.6,11.9-2.6C220.1,21.1,226.3,23.7,231,28.7z"
		/>
	<path class="svg" d="M312,28.7c4.6,5.1,7,12.1,7,20.9v39.1h-20.4V52.5c0-4.5-1.2-8-3.5-10.4c-2.3-2.5-5.4-3.7-9.4-3.7c-3.9,0-7,1.2-9.4,3.7
		c-2.3,2.5-3.5,6-3.5,10.4v36.4h-20.5V0h20.5v30.9c2.1-3,4.9-5.3,8.5-7.1c3.6-1.8,7.6-2.6,12.1-2.6C301.2,21.1,307.3,23.7,312,28.7z
		"/>
	<path class="svg" d="M396,60.3h-46.5c0.3,4.2,1.7,7.3,4,9.5c2.4,2.2,5.3,3.3,8.7,3.3c5.1,0,8.7-2.2,10.7-6.5h21.8c-1.1,4.4-3.1,8.4-6.1,11.9
		c-2.9,3.5-6.6,6.3-11,8.3c-4.4,2-9.3,3-14.8,3c-6.6,0-12.4-1.4-17.5-4.2c-5.1-2.8-9.1-6.8-12-12c-2.9-5.2-4.3-11.3-4.3-18.2
		c0-7,1.4-13,4.3-18.2c2.8-5.2,6.8-9.2,11.9-12c5.1-2.8,11-4.2,17.6-4.2c6.5,0,12.2,1.4,17.3,4.1c5,2.7,9,6.6,11.8,11.6
		c2.8,5,4.3,10.9,4.3,17.6C396.4,56.2,396.2,58.2,396,60.3z M375.4,48.9c0-3.5-1.2-6.3-3.6-8.4c-2.4-2.1-5.4-3.1-9-3.1
		c-3.4,0-6.3,1-8.7,3c-2.4,2-3.8,4.8-4.4,8.5H375.4z"/>
	<path class="svg" d="M407.4,37.1c2.8-5.2,6.8-9.2,11.9-12c5.1-2.8,10.9-4.2,17.5-4.2c8.4,0,15.4,2.2,21.1,6.6c5.6,4.4,9.3,10.6,11.1,18.6H447
		c-1.8-5.1-5.4-7.7-10.7-7.7c-3.8,0-6.8,1.5-9,4.4c-2.2,2.9-3.4,7.1-3.4,12.5c0,5.4,1.1,9.6,3.4,12.5c2.2,2.9,5.2,4.4,9,4.4
		c5.3,0,8.8-2.6,10.7-7.7h21.8c-1.8,7.8-5.5,14-11.2,18.5c-5.7,4.5-12.7,6.7-21,6.7c-6.6,0-12.4-1.4-17.5-4.2
		c-5.1-2.8-9-6.8-11.9-12c-2.8-5.2-4.3-11.3-4.3-18.2C403.1,48.4,404.5,42.3,407.4,37.1z"/>
	<path class="svg" d="M542.6,60.3h-46.5c0.3,4.2,1.7,7.3,4,9.5c2.4,2.2,5.3,3.3,8.7,3.3c5.1,0,8.7-2.2,10.7-6.5h21.8c-1.1,4.4-3.1,8.4-6.1,11.9
		c-2.9,3.5-6.6,6.3-11,8.3c-4.4,2-9.3,3-14.8,3c-6.6,0-12.4-1.4-17.5-4.2c-5.1-2.8-9.1-6.8-12-12c-2.9-5.2-4.3-11.3-4.3-18.2
		c0-7,1.4-13,4.3-18.2c2.8-5.2,6.8-9.2,11.9-12c5.1-2.8,11-4.2,17.6-4.2c6.5,0,12.2,1.4,17.3,4.1c5,2.7,9,6.6,11.8,11.6
		c2.8,5,4.3,10.9,4.3,17.6C542.9,56.2,542.8,58.2,542.6,60.3z M521.9,48.9c0-3.5-1.2-6.3-3.6-8.4c-2.4-2.1-5.4-3.1-9-3.1
		c-3.4,0-6.3,1-8.7,3c-2.4,2-3.8,4.8-4.4,8.5H521.9z"/>
	<path class="svg" d="M583.3,24.3c3.6-2.1,7.6-3.2,12-3.2v21.7h-5.6c-5.1,0-9,1.1-11.5,3.3c-2.6,2.2-3.8,6.1-3.8,11.6v31.1h-20.5v-67h20.5V33
		C576.7,29.3,579.7,26.4,583.3,24.3z"/>
</g>
</svg>