<?xml version="1.0" encoding="utf-8"?>
<!-- Generator: Adobe Illustrator 24.1.2, SVG Export Plug-In . SVG Version: 6.00 Build 0)  -->
<svg version="1.1" id="Camada_1" xmlns="http://www.w3.org/2000/svg"
	xmlns:xlink="http://www.w3.org/1999/xlink" x="0px" y="0px"
	viewBox="0 0 326.9 96.7" style="enable-background:new 0 0 326.9 96.7;" xml:space="preserve">

	<style>
		.svg{
			fill: white;
		}
		.svgponto{
			fill: #E8BD00;
		}

	</style>

<g>
	<path class="svg" d="M37,76.5l14.5-47.8h21.9l-23.8,67H24.3l-23.8-67h22L37,76.5z"/>
	<path class="svg" d="M94.9,92.5c-5.2-2.8-9.4-6.8-12.4-12c-3-5.2-4.5-11.3-4.5-18.3c0-6.9,1.5-12.9,4.6-18.2c3-5.2,7.2-9.3,12.5-12.1
		c5.3-2.8,11.2-4.2,17.8-4.2c6.6,0,12.5,1.4,17.8,4.2c5.3,2.8,9.4,6.8,12.5,12.1c3,5.2,4.6,11.3,4.6,18.2c0,6.9-1.5,13-4.6,18.2
		c-3.1,5.2-7.3,9.3-12.6,12.1c-5.3,2.8-11.3,4.2-17.8,4.2C106,96.7,100.1,95.3,94.9,92.5z M122.6,74.6c2.8-2.9,4.1-7,4.1-12.4
		c0-5.4-1.3-9.5-4-12.4c-2.7-2.9-6-4.3-9.9-4.3c-4,0-7.3,1.4-10,4.3c-2.6,2.8-4,7-4,12.4c0,5.4,1.3,9.5,3.9,12.4
		c2.6,2.9,5.9,4.3,9.8,4.3C116.5,78.9,119.8,77.4,122.6,74.6z"/>
	<path class="svg" d="M158.7,43.9c2.8-5.2,6.8-9.2,11.9-12c5.1-2.8,10.9-4.2,17.5-4.2c8.4,0,15.4,2.2,21.1,6.6c5.6,4.4,9.3,10.6,11.1,18.6h-21.9
		c-1.8-5.1-5.4-7.7-10.7-7.7c-3.8,0-6.8,1.5-9,4.4c-2.2,2.9-3.4,7.1-3.4,12.6c0,5.4,1.1,9.6,3.4,12.5c2.2,2.9,5.2,4.4,9,4.4
		c5.3,0,8.8-2.6,10.7-7.7h21.9c-1.8,7.8-5.5,14-11.2,18.5c-5.7,4.5-12.7,6.7-21,6.7c-6.6,0-12.4-1.4-17.5-4.2
		c-5.1-2.8-9-6.8-11.9-12c-2.8-5.2-4.3-11.3-4.3-18.3S155.9,49.1,158.7,43.9z"/>
	<path class="svg" d="M294,67.1h-46.5c0.3,4.2,1.7,7.3,4,9.5c2.4,2.2,5.3,3.3,8.7,3.3c5.1,0,8.7-2.2,10.7-6.5h21.9c-1.1,4.4-3.1,8.4-6.1,11.9
		c-2.9,3.5-6.6,6.3-11,8.3c-4.4,2-9.3,3-14.8,3c-6.6,0-12.4-1.4-17.5-4.2c-5.1-2.8-9.1-6.8-12-12c-2.9-5.2-4.3-11.3-4.3-18.3
		s1.4-13,4.3-18.3c2.8-5.2,6.8-9.2,12-12c5.1-2.8,11-4.2,17.7-4.2c6.5,0,12.3,1.4,17.3,4.1c5,2.7,9,6.6,11.8,11.6
		c2.8,5,4.3,10.9,4.3,17.7C294.4,63,294.3,65,294,67.1z M260.8,13.8l-18.6,9.8V9.5L260.8,0l18.6,9.5v14.2L260.8,13.8z M273.4,55.7
		c0-3.5-1.2-6.3-3.6-8.4c-2.4-2.1-5.4-3.1-9-3.1c-3.4,0-6.3,1-8.7,3c-2.4,2-3.8,4.8-4.4,8.5H273.4z"/>
	<path class="svgponto" d="M306,93.5c-2.3-2.1-3.4-4.7-3.4-7.9c0-3.2,1.1-5.9,3.4-8c2.3-2.2,5.2-3.2,8.8-3.2c3.5,0,6.4,1.1,8.7,3.2
		c2.3,2.2,3.4,4.8,3.4,8c0,3.1-1.1,5.7-3.4,7.9c-2.3,2.1-5.2,3.2-8.7,3.2C311.2,96.7,308.3,95.6,306,93.5z"/>
</g>
</svg>