<?xml version="1.0" encoding="utf-8"?>
<!-- Generator: Adobe Illustrator 24.1.2, SVG Export Plug-In . SVG Version: 6.00 Build 0)  -->
<svg version="1.1" id="Camada_1" xmlns="http://www.w3.org/2000/svg" xmlns:xlink="http://www.w3.org/1999/xlink" x="0px" y="0px"
	 viewBox="0 0 595.3 366.5" style="enable-background:new 0 0 595.3 366.5;" xml:space="preserve">
<style type="text/css">
	.st0{fill:#FFDA01;}
</style>
<g>
	<path class="st0" d="M595.2,0.6c0.2-0.3-0.1-0.7-0.4-0.6c-11.3,4.1-104.3,37.5-224.5,65.9h0c-18.2,4.3-68.7,14.6-74.7,16.1
		c-0.1,0-0.1,0-0.2,0c-26.4,6.6-50.8,18.4-72,34.2c-9.5,7.1-18.4,15-26.6,23.6c-34.5,36.5-55.7,85.8-55.7,140
		c0,20.2,2.9,39.8,8.4,58.2v0c2.9,9.7,6.5,19.1,10.7,28.1c0.2,0.3,0.7,0.3,0.7-0.1c1.5-13.1,4.3-25.9,8.2-38.1
		c11-34.6,31-65.2,57.2-89.1v0c23.9-21.7,53-37.9,85.2-46.4c1.9-0.5,11.7-2.7,13.3-3c28.6-6.1,86.1-20.8,150.4-66.4l0.3-0.3
		C514.7,95.1,556.2,56,595.2,0.6z"/>
	<path class="st0" d="M212.4,103.1c0,0.4-0.2,0.7-0.4,1c0,0-0.1,0.1-0.1,0.1c0,0-0.1,0.1-0.1,0.1c0,0,0,0,0,0
		c-10.6,7.6-20.5,16.2-29.4,25.6c-31,32.7-51.2,75.6-55.2,123.2v0c0,0.1,0,0.2,0,0.3c-0.1,0.6-0.7,1.1-1.4,1.1
		c-0.7,0-1.2-0.5-1.4-1.1v-0.1c-11-58-61.9-101.9-123.1-102c22.9-30.7,59.5-50.6,100.7-50.6c10.8,0,21.3,1.4,31.4,3.9
		c0.9,0.2,1.8,0.5,2.7,0.7c10,2.6,20.5,3.9,31.4,3.9c15.1,0,29.6-2.7,43-7.6c0,0,0,0,0,0c0.1,0,0.2-0.1,0.3-0.1c0,0,0,0,0.1,0
		c0.1,0,0.2,0,0.3,0C211.8,101.7,212.4,102.3,212.4,103.1z"/>
</g>
</svg>
