<svg xmlns="http://www.w3.org/2000/svg" viewBox="0 0 347.97 214.66"><defs><style>.cls-1{fill:#ffdb01;}</style></defs><g id="Camada_2" data-name="Camada 2"><g id="Camada_1-2" data-name="Camada 1"><path class="cls-1" d="M347.93.35a.22.22,0,0,0-.25-.34,1265.68,1265.68,0,0,1-131.5,38.61h0c-10.66,2.51-40.25,8.56-43.79,9.44l-.11,0a119.15,119.15,0,0,0-42.17,20,121,121,0,0,0-15.56,13.83A119.64,119.64,0,0,0,86.86,198.06h0a118.2,118.2,0,0,0,6.27,16.47.22.22,0,0,0,.41-.07,119,119,0,0,1,38.29-74.54h0a119.32,119.32,0,0,1,49.93-27.16c1.1-.29,6.86-1.57,7.82-1.78,16.73-3.56,50.44-12.18,88.11-38.89l.21-.15C300.76,55.72,325.06,32.82,347.93.35Z"/><path class="cls-1" d="M123.71,60.41a.83.83,0,0,1-.24.6l-.07.05-.08.06h0a119.37,119.37,0,0,0-49.55,87.16h0a1,1,0,0,1,0,.17.81.81,0,0,1-.81.66.84.84,0,0,1-.81-.64v0A73.53,73.53,0,0,0,0,88.72,73.57,73.57,0,0,1,77.36,61.38c.53.13,1,.27,1.57.42A73.68,73.68,0,0,0,97.3,64.11a73.41,73.41,0,0,0,25.18-4.42h0l.17-.07h0l.16,0A.83.83,0,0,1,123.71,60.41Z"/></g></g></svg>